<svg xmlns="http://www.w3.org/2000/svg" viewBox="0 0 24 24" width="42" height="42" fill="none">
  <circle cx="12" cy="12" r="3.5" stroke="#000" stroke-width="1.5"/>
  <path d="M15.9 8.1l-1.2-.7a4.978 4.978 0 0 0-1.1-1.4l.7-1.2a1.001 1.001 0 0 0-.4-1.4l-1.5-.8a1.003 1.003 0 0 0-1.4.4l-.7 1.2a5.002 5.002 0 0 0-1.4 1.1l-1.2-.7a1.002 1.002 0 0 0-1.4.4l-.8 1.5a1.003 1.003 0 0 0 .4 1.4l1.2.7a4.978 4.978 0 0 0 1.1 1.4l-.7 1.2a1.001 1.001 0 0 0 .4 1.4l1.5.8a1.003 1.003 0 0 0 1.4-.4l.7-1.2a5.002 5.002 0 0 0 1.4-1.1l1.2.7a1.002 1.002 0 0 0 1.4-.4l.8-1.5a1.003 1.003 0 0 0-.4-1.4l-1.2-.7a4.978 4.978 0 0 0-1.1-1.4l.7-1.2a1.001 1.001 0 0 0-.4-1.4l-1.5-.8a1.003 1.003 0 0 0-1.4.4l-.7 1.2a5.002 5.002 0 0 0-1.4 1.1z" fill="#000"/>
</svg>
