<svg xmlns="http://www.w3.org/2000/svg" width="20" height="20" fill="#c32aa3" viewBox="0 0 30 23">
  <path d="M12 2.163c3.204 0 3.584.012 4.85.07 1.366.062 2.633.333 3.608 1.31.975.975 1.248 2.242 1.31 3.608.059 1.267.07 1.647.07 4.85s-.012 3.584-.07 4.85c-.062 1.366-.333 2.633-1.31 3.608-.975.975-2.242 1.248-3.608 1.31-1.267.059-1.647.07-4.85.07s-3.584-.012-4.85-.07c-1.366-.062-2.633-.333-3.608-1.31-.975-.975-1.248-2.242-1.31-3.608C2.175 15.584 2.163 15.204 2.163 12s.012-3.584.07-4.85c.062-1.366.333-2.633 1.31-3.608.975-.975 2.242-1.248 3.608-1.31 1.267-.059 1.647-.07 4.85-.07m0-2.163C8.756 0 8.332.013 7.053.072 5.732.131 4.543.407 3.465 1.486 2.387 2.565 2.111 3.754 2.052 5.076 1.993 6.355 1.98 6.779 1.98 12c0 5.221.013 5.645.072 6.924.059 1.322.335 2.511 1.413 3.589 1.078 1.078 2.267 1.354 3.589 1.413 1.279.059 1.703.072 6.924.072 5.221 0 5.645-.013 6.924-.072 1.322-.059 2.511-.335 3.589-1.413 1.078-1.078 1.354-2.267 1.413-3.589.059-1.279.072-1.703.072-6.924 0-5.221-.013-5.645-.072-6.924-.059-1.322-.335-2.511-1.413-3.589-1.078-1.078-2.267-1.354-3.589-1.413-1.279-.059-1.703-.072-6.924-.072zM12 5.838a6.163 6.163 0 100 12.325 6.163 6.163 0 000-12.325zm0 10.163a3.998 3.998 0 110-7.996 3.998 3.998 0 010 7.996zm6.406-11.845a1.44 1.44 0 100 2.88 1.44 1.44 0 000-2.88z"/>
</svg>
