<svg xmlns="http://www.w3.org/2000/svg" viewBox="0 0 64 64" width="64" height="64">
  <!-- Apple -->
  <path d="M22 14c-6 0-10 5-10 10s4 10 10 10 10-4 10-10-4-10-10-10z" fill="#FF4B4B"/>
  <path d="M22 8c-1 0-2 .5-2 1.5s1 1.5 2 1.5 2-.5 2-1.5-1-1.5-2-1.5z" fill="#D04040"/>
  <path d="M22 24c-4 0-6-2-6-6s2-6 6-6 6 2 6 6-2 6-6 6z" fill="#F76C6C"/>

 

  <!-- Broccoli -->
  <path d="M32 36c-6 0-10 4-10 10s4 10 10 10 10-4 10-10-4-10-10-10z" fill="#66BB6A"/>
  <path d="M32 28c-4 0-7 3-7 7s3 7 7 7 7-3 7-7-3-7-7-7z" fill="#4CAF50"/>
  <path d="M32 44c-3 0-5-2-5-5s2-5 5-5 5 2 5 5-2 5-5 5z" fill="#388E3C"/>

  <!-- Grapes -->
  <circle cx="52" cy="48" r="8" fill="#7E57C2"/>
  <circle cx="56" cy="40" r="8" fill="#AB47BC"/>
  <circle cx="48" cy="40" r="8" fill="#7E57C2"/>
  <circle cx="52" cy="32" r="8" fill="#AB47BC"/>

  <!-- Apple Stem -->
  <path d="M22 12c-1 0-2 .5-2 1.5s1 1.5 2 1.5 2-.5 2-1.5-1-1.5-2-1.5z" fill="#4CAF50"/>
</svg>
