<svg xmlns="http://www.w3.org/2000/svg" viewBox="0 0 24 24" width="24" height="24">
  <path d="M22.46 6c-.77.34-1.6.57-2.47.68.89-.53 1.57-1.37 1.89-2.38-.83.49-1.74.85-2.72 1.05-.78-.83-1.89-1.35-3.12-1.35-2.36 0-4.28 1.92-4.28 4.28 0 .34.04.67.11.98-3.56-.18-6.72-1.89-8.83-4.49-.37.63-.58 1.37-.58 2.16 0 1.49.76 2.81 1.91 3.58-.71-.02-1.38-.21-1.97-.52v.05c0 2.09 1.48 3.83 3.44 4.23-.36.1-.74.15-1.13.15-.28 0-.55-.03-.82-.07.55 1.72 2.13 2.97 4.01 3.01-1.47 1.15-3.33 1.83-5.34 1.83-.34 0-.67-.02-1-.06 1.85 1.18 4.05 1.87 6.41 1.87 7.69 0 11.9-6.36 11.9-11.89 0-.18-.01-.36-.02-.54.82-.59 1.53-1.34 2.1-2.19z" fill="#1DA1F2"/>
</svg>
